<?xml version="1.0" encoding="utf-8"?>
<!-- Generator: Adobe Illustrator 21.0.2, SVG Export Plug-In . SVG Version: 6.00 Build 0)  -->
<svg version="1.1" id="Layer_1" xmlns="http://www.w3.org/2000/svg" xmlns:xlink="http://www.w3.org/1999/xlink" x="0px" y="0px"
	 viewBox="0 0 36 32" style="enable-background:new 0 0 36 32;" xml:space="preserve">
<style type="text/css">
	.st0{opacity:0.6;fill:#FFFFFF;}
	.st1{opacity:0.6;fill:#FF3E3E;}
</style>
<path class="st0" d="M28.4,30H7.6C4.5,30,2,27.5,2,24.4V7.6C2,4.5,4.5,2,7.6,2h20.8C31.5,2,34,4.5,34,7.6v16.8
	C34,27.5,31.5,30,28.4,30z"/>
<path class="st1" d="M22.8,22.3c0,0.2-8.8,0.2-8.8,0c0-5.9-0.5-8.8,4.6-8.8C23.3,13.4,22.8,17,22.8,22.3z"/>
<path class="st1" d="M23.3,25.5H13.2c-0.6,0-1-0.4-1-1v-0.4c0-0.6,0.4-1,1-1h10.1c0.6,0,1,0.4,1,1v0.4
	C24.3,25.1,23.9,25.5,23.3,25.5z"/>
<path class="st1" d="M24.8,18.7c1.7,0,3.3,0,5,0c1,0,1-1.5,0-1.5c-1.7,0-3.3,0-5,0C23.8,17.2,23.8,18.7,24.8,18.7L24.8,18.7z"/>
<path class="st1" d="M6.8,18.7c1.7,0,3.3,0,5,0c1,0,1-1.5,0-1.5c-1.7,0-3.3,0-5,0C5.8,17.2,5.8,18.7,6.8,18.7L6.8,18.7z"/>
<path class="st1" d="M9,10.7c1.2,1.2,2.4,2.4,3.5,3.5c0.7,0.7,1.7-0.4,1.1-1.1c-1.2-1.2-2.4-2.4-3.5-3.5C9.3,8.9,8.3,10,9,10.7
	L9,10.7z"/>
<path class="st1" d="M26.5,9.6c-1.2,1.2-2.4,2.4-3.5,3.5c-0.7,0.7,0.4,1.7,1.1,1.1c1.2-1.2,2.4-2.4,3.5-3.5
	C28.2,10,27.2,8.9,26.5,9.6L26.5,9.6z"/>
<path class="st1" d="M17.5,6.4c0,1.7,0,3.3,0,5c0,1,1.5,1,1.5,0c0-1.7,0-3.3,0-5C19,5.4,17.5,5.4,17.5,6.4L17.5,6.4z"/>
</svg>
