<?xml version="1.0" encoding="utf-8"?>
<!-- Generator: Adobe Illustrator 21.0.2, SVG Export Plug-In . SVG Version: 6.00 Build 0)  -->
<svg version="1.1" id="Layer_1" xmlns="http://www.w3.org/2000/svg" xmlns:xlink="http://www.w3.org/1999/xlink" x="0px" y="0px"
	 viewBox="0 0 55.5 57.6" style="enable-background:new 0 0 55.5 57.6;" xml:space="preserve">
<style type="text/css">
	.st0{opacity:0.67;fill:none;stroke:#8A68AD;stroke-width:5.375;stroke-miterlimit:10;}
	.st1{opacity:0.67;}
	.st2{fill:#8A68AD;}
</style>
<circle class="st0" cx="27.5" cy="28.4" r="13.8"/>
<g class="st1">
	<g>
		<path class="st2" d="M24.8,8c0,14.3,0,28.7,0,43c0,3.9,6,3.9,6,0c0-14.3,0-28.7,0-43C30.8,4.1,24.8,4.1,24.8,8L24.8,8z"/>
	</g>
</g>
<g class="st1">
	<g>
		<path class="st2" d="M49.3,26.4c-14.3,0-28.7,0-43,0c-3.9,0-3.9,6,0,6c14.3,0,28.7,0,43,0C53.2,32.5,53.2,26.4,49.3,26.4
			L49.3,26.4z"/>
	</g>
</g>
</svg>
