<?xml version="1.0" encoding="utf-8"?>
<!-- Generator: Adobe Illustrator 21.0.2, SVG Export Plug-In . SVG Version: 6.00 Build 0)  -->
<svg version="1.1" id="Layer_1" xmlns="http://www.w3.org/2000/svg" xmlns:xlink="http://www.w3.org/1999/xlink" x="0px" y="0px"
	 viewBox="0 0 14 16" style="enable-background:new 0 0 14 16;" xml:space="preserve">
<style type="text/css">
	.st0{opacity:0.67;fill:#AA61F7;}
</style>
<path class="st0" d="M12.1,13.2c-0.9-1.4-1.8-2.8-2.7-4.2c0.7-0.8,1.2-1.9,1.2-3.1c0-2.6-2.1-4.8-4.8-4.8S1,3.3,1,5.9
	s2.1,4.8,4.8,4.8c0.3,0,0.7,0,1-0.1c0.9,1.4,1.8,2.8,2.7,4.2C10.5,16.4,13.1,14.9,12.1,13.2z M3,5.9c0-1.5,1.2-2.8,2.8-2.8
	s2.8,1.2,2.8,2.8c0,1.5-1.2,2.8-2.8,2.8S3,7.5,3,5.9z"/>
</svg>
