<?xml version="1.0" encoding="utf-8"?>
<!-- Generator: Adobe Illustrator 21.0.2, SVG Export Plug-In . SVG Version: 6.00 Build 0)  -->
<svg version="1.1" id="Layer_1" xmlns="http://www.w3.org/2000/svg" xmlns:xlink="http://www.w3.org/1999/xlink" x="0px" y="0px"
	 viewBox="0 0 20 20" style="enable-background:new 0 0 20 20;" xml:space="preserve">
<style type="text/css">
	.st0{fill:#AA61F7;}
</style>
<g>
	<g>
		<path class="st0" d="M3.4,6.3c4.2,0,8.4,0,12.6,0c1.9,0,1.9-3,0-3c-4.2,0-8.4,0-12.6,0C1.4,3.3,1.4,6.3,3.4,6.3L3.4,6.3z"/>
	</g>
</g>
<g>
	<g>
		<path class="st0" d="M3.4,11.1c4.2,0,8.4,0,12.6,0c1.9,0,1.9-3,0-3c-4.2,0-8.4,0-12.6,0C1.4,8.1,1.4,11.1,3.4,11.1L3.4,11.1z"/>
	</g>
</g>
<g>
	<g>
		<path class="st0" d="M3.4,16.5c4.2,0,8.4,0,12.6,0c1.9,0,1.9-3,0-3c-4.2,0-8.4,0-12.6,0C1.4,13.5,1.4,16.5,3.4,16.5L3.4,16.5z"/>
	</g>
</g>
</svg>
